<?xml version="1.0" encoding="UTF-8"?>
<svg xmlns="http://www.w3.org/2000/svg" width="1024" height="1024" viewBox="0 0 1024 1024">
    <g>
        <g id="Back">
            <path d="M485.01,958.93H29.52c-.05-2.29-.2-4.59-.14-6.88.2-7.15.37-14.31.76-21.46.33-6.02.9-12.04,1.47-18.04.75-7.92,1.59-15.82,2.41-23.73.59-5.68,1.18-11.35,1.8-17.02.88-8,1.79-15.99,2.67-23.99.71-6.51,1.4-13.02,2.09-19.53.9-8.51,1.82-17.02,2.66-25.54.76-7.63,1.45-15.27,2.11-22.91.67-7.88,1.29-15.76,1.87-23.64.28-3.87.45-7.75.63-11.63.44-9.86.99-19.72,1.26-29.59.32-12.16.23-24.33-.46-36.48-.26-4.53-.48-9.07-.95-13.58-.7-6.79-1.46-13.58-2.43-20.34-1.43-10-3.05-19.97-4.64-29.94-1.51-9.47-3.1-18.92-4.63-28.38-1.38-8.59-2.7-17.18-4.1-25.77-.19-1.19.01-1.95.98-2.76,7.23-6.08,14.35-12.3,21.05-18.97,8.65-8.61,16.55-17.81,22.82-28.34,2.37-3.99,4.5-8.09,6.34-12.34,2.14-4.94,3.94-10.01,5.4-15.19,1.89-6.67,3.24-13.45,4.11-20.33.64-5.06,1.06-10.15,1.13-15.24.05-3.93-.09-7.86-.18-11.78-.13-5.99-.79-11.95-1.55-17.89-.83-6.44-1.93-12.85-2.91-19.28-.22-1.43-.44-2.85-.66-4.32.64-.29,1.18-.56,1.74-.8,29.12-12.62,58.25-25.24,87.37-37.86,1.16-.5,2.33-1.37,3.49-1.35,1.21.02,2.42.87,3.61,1.41,10.27,4.64,20.67,8.95,31.53,12.08,10.22,2.95,20.61,4.57,31.26,4.47,6.55-.06,13.09,0,19.64-.02,4.87-.02,9.72-.19,14.55-.86,8.46-1.17,16.66-3.38,24.73-6.13,8.69-2.96,17.08-6.62,25.41-10.44,1.23-.56,2.2-.51,3.4.02,28.85,12.54,57.72,25.04,86.59,37.55,1.41.61,2.82,1.24,4.24,1.86-.02.4,0,.72-.06,1.04-.75,4.8-1.52,9.6-2.27,14.41-1.11,7.17-2.01,14.36-2.49,21.6-.46,6.96-.69,13.92-.25,20.89.36,5.84,1,11.65,2,17.41,1.64,9.38,4.21,18.49,7.87,27.3,2.83,6.81,6.33,13.26,10.46,19.34,5.4,7.96,11.71,15.18,18.49,21.99,7,7.04,14.49,13.54,22.06,19.95.78.66.98,1.3.82,2.29-1.41,8.72-2.75,17.46-4.15,26.19-1.52,9.46-3.1,18.92-4.64,28.38-1.16,7.11-2.4,14.2-3.43,21.33-1.09,7.5-2.1,15.01-2.9,22.54-.78,7.44-1.45,14.9-1.82,22.37-.53,10.94-.66,21.89-.33,32.84.35,11.6.95,23.18,1.44,34.78.09,2.01.18,4.02.33,6.03.49,6.34.98,12.69,1.51,19.03.67,7.92,1.33,15.85,2.07,23.76.66,7.08,1.4,14.15,2.14,21.22.67,6.47,1.37,12.93,2.08,19.39.7,6.37,1.42,12.73,2.12,19.1.7,6.37,1.39,12.74,2.07,19.11.81,7.49,1.64,14.97,2.39,22.46.74,7.35,1.42,14.71,2.08,22.07.81,8.9,1.44,17.81,1.37,26.76-.03,3.79,0,7.58.01,11.37Z" fill="#ff00ff" stroke-width="0"/>
        </g>
        <g id="Front">
            <path d="M538.55,956.93c0-4.68,0-9.36,0-14.04.13-.49.33-.98.36-1.47.15-2.33.22-4.67.39-7,.48-6.3.95-12.59,1.52-18.88.64-7.13,1.35-14.25,2.06-21.36.6-5.95,1.25-11.9,1.89-17.85.6-5.53,1.22-11.06,1.83-16.59.69-6.18,1.38-12.36,2.06-18.54.62-5.62,1.22-11.25,1.82-16.88.54-5.07,1.07-10.14,1.59-15.21.44-4.28.87-8.56,1.28-12.84.43-4.51.86-9.03,1.25-13.55.36-4.1.67-8.2.99-12.31.41-5.18.89-10.35,1.2-15.53.52-8.78,1.01-17.56,1.35-26.34.48-12.2.77-24.4.44-36.62-.29-10.76-.76-21.5-2.02-32.19-.9-7.66-1.79-15.33-2.95-22.95-1.83-12.06-3.91-24.09-5.85-36.13-2.17-13.48-4.28-26.96-6.47-40.44-.16-.97.05-1.53.77-2.15,3.91-3.34,7.82-6.69,11.65-10.13,10.15-9.11,19.71-18.78,27.63-29.95,3.93-5.55,7.39-11.38,10.22-17.55,3.92-8.57,6.75-17.52,8.67-26.76,1.62-7.8,2.58-15.69,2.89-23.64.32-8,0-15.99-.78-23.96-.87-8.85-2.16-17.63-3.61-26.4-.3-1.83-.57-3.67-.86-5.53.53-.24.95-.43,1.37-.62,29.97-12.99,59.94-25.97,89.91-38.96.42-.18.82-.42,1.22-.64.09,0,.19,0,.28,0,.59.36.66.96.77,1.56,1.97,10.52,3.9,21.05,5.95,31.55,1.29,6.6,2.67,13.19,4.66,19.63,2.65,8.56,6.78,16.29,12.72,23.02,4.49,5.08,9.79,9.07,16.04,11.77,4.74,2.05,9.69,3.38,14.75,4.36,5.61,1.09,11.26,1.82,16.96,2.02,6.92.25,13.82-.11,20.68-1.22,5.64-.91,11.21-2.04,16.59-4.01,6.37-2.34,11.99-5.86,16.77-10.69,7.06-7.13,11.81-15.61,14.8-25.14,2.17-6.93,3.59-14.04,4.99-21.14,1.97-10,3.78-20.02,5.65-30.04.12-.64.15-1.31.81-1.69.09,0,.19,0,.28,0,.4.22.8.46,1.22.64,29.97,12.99,59.94,25.97,89.91,38.96.46.2.9.43,1.35.65-.11.77-.2,1.42-.31,2.06-.52,3.23-1.11,6.45-1.55,9.69-.91,6.76-1.91,13.52-2.56,20.32-.55,5.81-.76,11.66-.91,17.5-.09,3.41.2,6.82.36,10.23.23,5.01.87,9.97,1.72,14.9,1.64,9.47,4.2,18.68,7.86,27.59,4.03,9.81,9.51,18.76,16.04,27.06,5.8,7.37,12.28,14.12,19.19,20.45,5.28,4.83,10.71,9.49,16.1,14.2.58.51.83.95.68,1.78-.72,4.24-1.34,8.5-2.02,12.74-1.72,10.8-3.44,21.61-5.17,32.41-1.87,11.63-3.75,23.26-5.62,34.89-1.39,8.64-2.42,17.33-3.17,26.03-.62,7.13-.89,14.28-1.21,21.43-.51,11.46-.33,22.92.06,34.38.33,9.49.84,18.97,1.35,28.45.29,5.32.71,10.64,1.11,15.96.4,5.32.82,10.63,1.29,15.94.45,5.12.95,10.24,1.44,15.36.59,6.19,1.16,12.38,1.81,18.57,1.04,9.86,2.16,19.71,3.24,29.56.88,8.04,1.78,16.08,2.64,24.12,1.19,11.11,2.42,22.22,3.52,33.34.88,8.89,1.62,17.79,2.37,26.69.79,9.24.88,18.5.72,27.77,0,.4-.08.8-.12,1.18-2.44.28-454.44.17-455.44-.1-.15-.58-.31-1.16-.46-1.74Z" fill="#ffff00" stroke-width="0"/>
        </g>
        <g id="Left_Sleeve">
            <path d="M448.02,210.34v.14c-.16.25-.34.49-.47.76-13.22,28.18-26.44,56.36-39.63,84.54-.16.34-.21.82-.12,1.19,1.19,4.78,2.43,9.55,3.64,14.33.55,2.17,1.08,4.35,1.62,6.52H122.9c.02-.14.03-.28.06-.42,1.74-6.77,3.47-13.54,5.22-20.3.13-.51.11-.93-.12-1.41-13.19-28.08-26.36-56.16-39.54-84.24-.17-.35-.33-.71-.52-1.09.93-.62,1.82-1.21,2.72-1.81,7.9-5.28,15.85-10.47,24.18-15.05,16.39-9.02,32.81-17.98,49.21-26.98,3.71-2.04,7.32-4.26,11.1-6.16,4.57-2.3,9.25-4.38,13.92-6.49,6.63-3,13.36-5.71,20.3-7.93,8.63-2.76,17.46-4.52,26.47-5.44,7.27-.74,14.55-1.17,21.84-1.4,3.9-.13,7.81-.3,11.71-.25,4.98.06,9.96.29,14.94.51,8.56.38,17.08,1.11,25.55,2.48,6.72,1.08,13.24,2.95,19.66,5.1,6.18,2.07,12.22,4.57,18.13,7.32,4.77,2.22,9.63,4.28,14.24,6.79,12.35,6.7,24.58,13.63,36.89,20.42,7.7,4.24,15.49,8.33,23.17,12.6,8.68,4.81,16.94,10.3,25.19,15.82.25.17.52.3.78.45Z" fill="#1a83cc" stroke-width="0"/>
        </g>
        <g id="Right_Sleeve">
            <path d="M955.07,210.34v.14c-.16.25-.34.49-.47.76-13.22,28.18-26.44,56.36-39.63,84.54-.16.34-.21.82-.12,1.19,1.19,4.78,2.43,9.55,3.64,14.33.55,2.17,1.08,4.35,1.62,6.52h-290.16c.02-.14.03-.28.06-.42,1.74-6.77,3.47-13.54,5.22-20.3.13-.51.11-.93-.12-1.41-13.19-28.08-26.36-56.16-39.54-84.24-.17-.35-.33-.71-.52-1.09.93-.62,1.82-1.21,2.72-1.81,7.9-5.28,15.85-10.47,24.18-15.05,16.39-9.02,32.81-17.98,49.21-26.98,3.71-2.04,7.32-4.26,11.1-6.16,4.57-2.3,9.25-4.38,13.92-6.49,6.63-3,13.36-5.71,20.3-7.93,8.63-2.76,17.46-4.52,26.47-5.44,7.27-.74,14.55-1.17,21.84-1.4,3.9-.13,7.81-.3,11.71-.25,4.98.06,9.96.29,14.94.51,8.56.38,17.08,1.11,25.55,2.48,6.72,1.08,13.24,2.95,19.66,5.1,6.18,2.07,12.22,4.57,18.13,7.32,4.77,2.22,9.63,4.28,14.24,6.79,12.35,6.7,24.58,13.63,36.89,20.42,7.7,4.24,15.49,8.33,23.17,12.6,8.68,4.81,16.94,10.3,25.19,15.82.25.17.52.3.78.45Z" fill="#1a83cc" stroke-width="0"/>
        </g>
        <g id="Collar">
            <rect x="244.6" y="65.07" width="548.89" height="26.63" fill="#1a83cc" stroke-width="0"/>
        </g>
        <rect width="1024" height="1024" fill="none" stroke-width="0"/>
    </g>
</svg>